<?xml version="1.0" encoding="utf-8"?>
<!-- Generator: Adobe Illustrator 24.3.0, SVG Export Plug-In . SVG Version: 6.00 Build 0)  -->
<svg version="1.1" id="Capa_1" xmlns="http://www.w3.org/2000/svg" xmlns:xlink="http://www.w3.org/1999/xlink" x="0px" y="0px"
	 viewBox="0 0 48 48" style="enable-background:new 0 0 48 48;" xml:space="preserve">
<style type="text/css">
	.st0{fill:#1D1D1B;}
</style>
<g>
	<g>
		<path class="st0" d="M45.1,8.9C44.5,8.3,43.8,8,43,8H11c-0.8,0-1.5,0.3-2.1,0.9C8.3,9.5,8,10.2,8,11v20c0,0.8,0.3,1.5,0.9,2.1
			C9.5,33.7,10.2,34,11,34h32c0.8,0,1.5-0.3,2.1-0.9c0.6-0.6,0.9-1.3,0.9-2.1V11C46,10.2,45.7,9.5,45.1,8.9z M43,26
			c-1.4,0-2.6,0.5-3.5,1.5c-1,1-1.5,2.1-1.5,3.5H16c0-1.4-0.5-2.6-1.5-3.5c-1-1-2.1-1.5-3.5-1.5V16c1.4,0,2.6-0.5,3.5-1.5
			c1-1,1.5-2.2,1.5-3.5h22c0,1.4,0.5,2.6,1.5,3.5c1,1,2.1,1.5,3.5,1.5V26z"/>
		<path class="st0" d="M33,21c0,1.7-0.6,3.1-1.8,4.2C30.1,26.4,28.7,27,27,27s-3.1-0.6-4.2-1.8C21.6,24.1,21,22.7,21,21
			c0-1.7,0.6-3.1,1.8-4.2c1.2-1.2,2.6-1.8,4.2-1.8s3.1,0.6,4.2,1.8C32.4,17.9,33,19.3,33,21z"/>
	</g>
	<path class="st0" d="M40,37v3H5c-0.8,0-1.5-0.3-2.1-0.9C2.3,38.5,2,37.8,2,37V14h3v23H40z"/>
</g>
</svg>
